<svg xmlns="http://www.w3.org/2000/svg" xmlns:xlink="http://www.w3.org/1999/xlink" width="378" zoomAndPan="magnify" viewBox="0 0 283.5 283.500005" height="378" preserveAspectRatio="xMidYMid meet" version="1.2"><defs><clipPath id="90f20e217e"><path d="M 40 43.355469 L 247 43.355469 L 247 237 L 40 237 Z M 40 43.355469 "/></clipPath></defs><g id="0bf50f0a66"><g clip-rule="nonzero" clip-path="url(#90f20e217e)"><path style=" stroke:none;fill-rule:nonzero;fill:#f8e10f;fill-opacity:1;" d="M 216.28125 43.355469 L 70.78125 43.355469 C 53.957031 43.355469 40.316406 56.996094 40.316406 73.820312 L 40.316406 205.679688 C 40.316406 222.503906 53.957031 236.144531 70.78125 236.144531 C 87.605469 236.144531 101.246094 222.503906 101.246094 205.679688 C 101.246094 203.316406 100.960938 201.015625 100.453125 198.804688 C 100.324219 198.242188 100.179688 197.683594 100.015625 197.132812 C 99.980469 197.011719 99.953125 196.894531 99.917969 196.785156 C 99.726562 196.15625 99.507812 195.53125 99.28125 194.921875 C 99.226562 194.777344 99.171875 194.640625 99.117188 194.492188 C 98.90625 193.957031 98.679688 193.4375 98.445312 192.921875 C 98.398438 192.820312 98.351562 192.71875 98.308594 192.609375 C 98.023438 192.019531 97.726562 191.445312 97.40625 190.882812 C 97.34375 190.773438 97.289062 190.675781 97.226562 190.566406 C 96.933594 190.066406 96.644531 189.554688 96.316406 189.074219 C 96.242188 188.972656 96.1875 188.863281 96.117188 188.765625 C 95.75 188.226562 95.378906 187.699219 94.988281 187.191406 C 94.898438 187.0625 94.796875 186.945312 94.695312 186.828125 C 94.34375 186.382812 93.980469 185.9375 93.597656 185.507812 C 93.53125 185.4375 93.46875 185.363281 93.40625 185.289062 C 92.96875 184.808594 92.523438 184.34375 92.058594 183.898438 C 91.949219 183.789062 91.832031 183.679688 91.722656 183.582031 C 91.304688 183.179688 90.867188 182.800781 90.433594 182.417969 C 90.367188 182.363281 90.304688 182.300781 90.230469 182.246094 C 89.730469 181.835938 89.222656 181.433594 88.695312 181.054688 C 88.566406 180.960938 88.441406 180.871094 88.3125 180.78125 C 87.832031 180.445312 87.339844 180.117188 86.839844 179.796875 C 86.777344 179.753906 86.710938 179.714844 86.640625 179.671875 C 86.085938 179.335938 85.511719 179.015625 84.9375 178.707031 C 84.792969 178.632812 84.65625 178.5625 84.511719 178.488281 C 83.976562 178.214844 83.429688 177.960938 82.875 177.714844 C 82.8125 177.6875 82.757812 177.660156 82.691406 177.632812 C 82.082031 177.378906 81.472656 177.144531 80.847656 176.925781 C 80.691406 176.871094 80.539062 176.816406 80.382812 176.769531 C 79.792969 176.570312 79.199219 176.386719 78.589844 176.234375 C 78.539062 176.214844 78.484375 176.207031 78.4375 176.1875 C 77.792969 176.023438 77.128906 175.878906 76.464844 175.75 C 76.371094 175.734375 76.292969 175.707031 76.199219 175.695312 C 74.527344 175.453125 72.917969 174.769531 72.015625 173.339844 C 69.015625 168.605469 71.835938 163.703125 76.238281 162.910156 C 76.363281 162.882812 76.480469 162.855469 76.609375 162.839844 C 76.808594 162.800781 77 162.757812 77.199219 162.71875 C 77.480469 162.65625 77.753906 162.59375 78.027344 162.527344 C 78.21875 162.484375 78.410156 162.4375 78.601562 162.382812 C 78.882812 162.3125 79.164062 162.230469 79.445312 162.148438 C 79.621094 162.09375 79.800781 162.046875 79.972656 161.992188 C 80.28125 161.890625 80.582031 161.792969 80.882812 161.683594 C 81.027344 161.628906 81.175781 161.582031 81.320312 161.527344 C 81.765625 161.363281 82.203125 161.191406 82.628906 161.011719 C 82.65625 161 82.683594 160.984375 82.703125 160.972656 C 83.113281 160.800781 83.511719 160.621094 83.910156 160.429688 C 84.046875 160.363281 84.195312 160.292969 84.328125 160.21875 C 84.613281 160.082031 84.882812 159.9375 85.15625 159.792969 C 85.320312 159.699219 85.476562 159.609375 85.640625 159.527344 C 85.886719 159.390625 86.128906 159.246094 86.375 159.101562 C 86.539062 159 86.703125 158.902344 86.867188 158.800781 C 87.101562 158.65625 87.332031 158.507812 87.558594 158.355469 C 87.722656 158.246094 87.886719 158.136719 88.039062 158.027344 C 88.269531 157.871094 88.496094 157.710938 88.714844 157.546875 C 88.867188 157.4375 89.023438 157.316406 89.175781 157.210938 C 89.402344 157.035156 89.621094 156.863281 89.851562 156.683594 C 89.988281 156.574219 90.132812 156.453125 90.269531 156.34375 C 90.503906 156.144531 90.742188 155.9375 90.976562 155.734375 C 91.085938 155.636719 91.203125 155.535156 91.324219 155.4375 C 91.667969 155.125 91.996094 154.808594 92.324219 154.480469 C 92.332031 154.472656 92.339844 154.460938 92.351562 154.445312 C 92.667969 154.125 92.976562 153.808594 93.277344 153.472656 C 93.378906 153.351562 93.476562 153.234375 93.585938 153.125 C 93.789062 152.898438 93.996094 152.664062 94.195312 152.425781 C 94.316406 152.289062 94.425781 152.144531 94.53125 152.007812 C 94.714844 151.789062 94.886719 151.5625 95.0625 151.335938 C 95.179688 151.179688 95.289062 151.035156 95.398438 150.878906 C 95.5625 150.660156 95.714844 150.433594 95.878906 150.207031 C 95.988281 150.042969 96.097656 149.886719 96.207031 149.726562 C 96.359375 149.496094 96.507812 149.261719 96.652344 149.023438 C 96.753906 148.859375 96.851562 148.695312 96.953125 148.535156 C 97.097656 148.289062 97.242188 148.042969 97.378906 147.789062 C 97.46875 147.632812 97.5625 147.46875 97.644531 147.316406 C 97.789062 147.042969 97.933594 146.761719 98.070312 146.476562 C 98.144531 146.34375 98.207031 146.207031 98.28125 146.070312 C 98.480469 145.652344 98.671875 145.222656 98.863281 144.785156 C 98.863281 144.777344 98.863281 144.769531 98.871094 144.757812 C 99.054688 144.339844 99.214844 143.914062 99.378906 143.476562 C 99.433594 143.332031 99.480469 143.1875 99.535156 143.039062 C 99.644531 142.742188 99.742188 142.441406 99.84375 142.140625 C 99.898438 141.96875 99.953125 141.785156 100 141.613281 C 100.082031 141.332031 100.164062 141.050781 100.234375 140.765625 C 100.289062 140.578125 100.335938 140.386719 100.378906 140.195312 C 100.445312 139.921875 100.515625 139.640625 100.570312 139.367188 C 100.617188 139.175781 100.652344 138.976562 100.691406 138.777344 C 100.746094 138.492188 100.789062 138.210938 100.84375 137.929688 C 100.878906 137.730469 100.90625 137.539062 100.933594 137.339844 C 100.980469 137.046875 101.015625 136.746094 101.042969 136.457031 C 101.0625 136.265625 101.089844 136.085938 101.109375 135.894531 C 101.136719 135.566406 101.164062 135.238281 101.179688 134.902344 C 101.191406 134.738281 101.207031 134.582031 101.21875 134.417969 C 101.246094 133.929688 101.253906 133.429688 101.253906 132.929688 L 101.253906 79.976562 C 101.253906 76.738281 103.746094 73.917969 106.984375 73.820312 C 110.21875 73.71875 113.074219 76.402344 113.074219 79.730469 L 113.074219 132.929688 C 113.074219 133.445312 113.085938 133.972656 113.113281 134.484375 C 113.113281 134.648438 113.140625 134.820312 113.148438 134.984375 C 113.175781 135.328125 113.195312 135.675781 113.230469 136.019531 C 113.25 136.230469 113.285156 136.429688 113.304688 136.640625 C 113.339844 136.9375 113.375 137.238281 113.421875 137.539062 C 113.457031 137.757812 113.492188 137.976562 113.539062 138.195312 C 113.585938 138.476562 113.628906 138.757812 113.683594 139.03125 C 113.730469 139.25 113.785156 139.46875 113.839844 139.683594 C 113.902344 139.957031 113.957031 140.222656 114.019531 140.496094 C 114.074219 140.714844 114.140625 140.929688 114.203125 141.148438 C 114.277344 141.414062 114.347656 141.675781 114.429688 141.929688 C 114.496094 142.148438 114.574219 142.367188 114.648438 142.585938 C 114.730469 142.839844 114.8125 143.09375 114.902344 143.339844 C 114.984375 143.558594 115.078125 143.777344 115.15625 143.996094 C 115.25 144.242188 115.339844 144.476562 115.441406 144.722656 C 115.53125 144.941406 115.628906 145.152344 115.722656 145.359375 C 115.832031 145.597656 115.929688 145.832031 116.039062 146.058594 C 116.140625 146.269531 116.25 146.476562 116.359375 146.6875 C 116.476562 146.914062 116.585938 147.140625 116.714844 147.371094 C 116.820312 147.578125 116.941406 147.777344 117.058594 147.980469 C 117.1875 148.195312 117.304688 148.425781 117.441406 148.644531 C 117.558594 148.84375 117.6875 149.042969 117.8125 149.234375 C 117.949219 149.441406 118.085938 149.660156 118.222656 149.871094 C 118.351562 150.0625 118.488281 150.253906 118.621094 150.445312 C 118.769531 150.652344 118.914062 150.863281 119.058594 151.0625 C 119.195312 151.253906 119.339844 151.433594 119.488281 151.617188 C 119.640625 151.816406 119.796875 152.015625 119.949219 152.214844 C 120.097656 152.398438 120.25 152.570312 120.40625 152.742188 C 120.570312 152.933594 120.734375 153.125 120.894531 153.316406 C 121.050781 153.488281 121.214844 153.664062 121.378906 153.828125 C 121.550781 154.007812 121.722656 154.191406 121.898438 154.371094 C 122.058594 154.535156 122.234375 154.699219 122.398438 154.863281 C 122.578125 155.035156 122.75 155.207031 122.941406 155.382812 C 123.113281 155.535156 123.296875 155.691406 123.46875 155.84375 C 123.660156 156.007812 123.84375 156.171875 124.035156 156.335938 C 124.214844 156.492188 124.398438 156.628906 124.578125 156.78125 C 124.769531 156.9375 124.96875 157.089844 125.171875 157.246094 C 125.359375 157.390625 125.550781 157.527344 125.742188 157.664062 C 125.941406 157.808594 126.144531 157.953125 126.351562 158.101562 C 126.542969 158.238281 126.742188 158.363281 126.945312 158.492188 C 127.152344 158.628906 127.363281 158.765625 127.570312 158.890625 C 127.769531 159.019531 127.980469 159.136719 128.179688 159.253906 C 128.398438 159.382812 128.609375 159.511719 128.835938 159.628906 C 129.042969 159.746094 129.253906 159.855469 129.460938 159.964844 C 129.679688 160.082031 129.90625 160.199219 130.136719 160.308594 C 130.355469 160.417969 130.570312 160.511719 130.789062 160.621094 C 131.019531 160.726562 131.246094 160.828125 131.472656 160.929688 C 131.691406 161.019531 131.917969 161.109375 132.144531 161.203125 C 132.382812 161.292969 132.609375 161.390625 132.84375 161.472656 C 133.074219 161.554688 133.300781 161.636719 133.527344 161.71875 C 133.765625 161.800781 134.007812 161.882812 134.246094 161.964844 C 134.472656 162.039062 134.710938 162.109375 134.945312 162.175781 C 135.191406 162.246094 135.4375 162.320312 135.683594 162.382812 C 135.917969 162.445312 136.15625 162.5 136.390625 162.554688 C 136.636719 162.621094 136.890625 162.675781 137.136719 162.730469 C 137.375 162.785156 137.621094 162.828125 137.867188 162.875 C 138.121094 162.921875 138.375 162.964844 138.628906 163.011719 C 138.875 163.046875 139.121094 163.082031 139.375 163.121094 C 139.628906 163.15625 139.882812 163.191406 140.148438 163.21875 C 140.394531 163.246094 140.648438 163.265625 140.902344 163.292969 C 141.167969 163.3125 141.421875 163.339844 141.683594 163.355469 C 141.9375 163.375 142.195312 163.382812 142.449219 163.394531 C 142.613281 163.394531 142.777344 163.410156 142.941406 163.410156 C 143.03125 163.410156 143.128906 163.410156 143.222656 163.410156 C 143.320312 163.410156 143.429688 163.410156 143.53125 163.410156 C 143.722656 163.410156 143.914062 163.402344 144.105469 163.394531 C 144.320312 163.394531 144.53125 163.394531 144.75 163.375 C 145.140625 163.355469 145.539062 163.339844 145.921875 163.300781 C 146.003906 163.300781 146.085938 163.292969 146.175781 163.285156 C 161.765625 161.945312 174.003906 148.878906 174.003906 132.9375 L 174.003906 79.984375 C 174.003906 76.746094 176.496094 73.929688 179.734375 73.828125 C 182.96875 73.726562 185.824219 76.410156 185.824219 79.738281 L 185.824219 132.9375 C 185.824219 147.796875 196.464844 160.15625 210.535156 162.847656 C 213.917969 163.71875 216.007812 167.167969 215.21875 170.613281 L 215.117188 171.058594 C 214.535156 173.558594 212.480469 175.316406 209.980469 175.878906 C 209.914062 175.898438 209.851562 175.914062 209.789062 175.925781 C 209.1875 176.050781 208.597656 176.207031 208.003906 176.371094 C 207.90625 176.398438 207.804688 176.425781 207.695312 176.460938 C 197.800781 179.363281 190 187.144531 187.082031 197.03125 C 187.054688 197.121094 187.027344 197.210938 187.007812 197.304688 C 186.84375 197.875 186.699219 198.457031 186.5625 199.050781 C 186.089844 201.1875 185.824219 203.40625 185.824219 205.6875 C 185.824219 222.511719 199.464844 236.152344 216.289062 236.152344 C 233.113281 236.152344 246.753906 222.511719 246.753906 205.6875 L 246.753906 73.820312 C 246.753906 56.996094 233.113281 43.355469 216.289062 43.355469 Z M 216.28125 43.355469 "/></g><path style=" stroke:none;fill-rule:nonzero;fill:#f8e10f;fill-opacity:1;" d="M 173.015625 198 C 172.898438 197.535156 172.761719 197.070312 172.625 196.617188 C 172.625 196.617188 172.625 196.609375 172.625 196.597656 C 172.488281 196.144531 172.332031 195.699219 172.167969 195.261719 C 172.117188 195.117188 172.050781 194.960938 171.996094 194.816406 C 171.886719 194.515625 171.769531 194.226562 171.652344 193.933594 C 171.578125 193.761719 171.496094 193.589844 171.425781 193.417969 C 171.304688 193.152344 171.195312 192.898438 171.070312 192.632812 C 170.988281 192.453125 170.898438 192.28125 170.804688 192.097656 C 170.6875 191.851562 170.558594 191.605469 170.433594 191.359375 C 170.34375 191.179688 170.242188 191.007812 170.140625 190.824219 C 170.015625 190.589844 169.878906 190.351562 169.742188 190.125 C 169.640625 189.953125 169.53125 189.777344 169.421875 189.605469 C 169.277344 189.378906 169.132812 189.152344 168.988281 188.933594 C 168.878906 188.761719 168.757812 188.597656 168.652344 188.421875 C 168.496094 188.195312 168.339844 187.976562 168.175781 187.761719 C 168.058594 187.597656 167.941406 187.441406 167.824219 187.277344 C 167.648438 187.058594 167.476562 186.839844 167.304688 186.625 C 167.1875 186.476562 167.066406 186.324219 166.949219 186.175781 C 166.757812 185.949219 166.558594 185.722656 166.367188 185.503906 C 166.257812 185.378906 166.140625 185.25 166.03125 185.121094 C 165.785156 184.851562 165.523438 184.585938 165.269531 184.324219 C 165.195312 184.25 165.132812 184.175781 165.066406 184.113281 C 164.738281 183.785156 164.402344 183.457031 164.058594 183.148438 C 163.957031 183.058594 163.859375 182.976562 163.757812 182.886719 C 163.503906 182.660156 163.257812 182.441406 162.996094 182.222656 C 162.859375 182.113281 162.722656 182.003906 162.585938 181.894531 C 162.359375 181.710938 162.128906 181.53125 161.894531 181.359375 C 161.738281 181.238281 161.585938 181.128906 161.421875 181.011719 C 161.203125 180.847656 160.976562 180.695312 160.746094 180.53125 C 160.585938 180.421875 160.410156 180.304688 160.246094 180.195312 C 160.019531 180.046875 159.792969 179.902344 159.566406 179.757812 C 159.394531 179.648438 159.21875 179.546875 159.039062 179.4375 C 158.8125 179.300781 158.574219 179.167969 158.339844 179.039062 C 158.15625 178.9375 157.984375 178.839844 157.800781 178.746094 C 157.566406 178.621094 157.320312 178.503906 157.074219 178.375 C 156.890625 178.285156 156.710938 178.191406 156.527344 178.113281 C 156.28125 177.992188 156.027344 177.882812 155.773438 177.765625 C 155.589844 177.683594 155.410156 177.601562 155.226562 177.53125 C 154.957031 177.421875 154.683594 177.3125 154.410156 177.210938 C 154.238281 177.148438 154.074219 177.074219 153.898438 177.011719 C 153.582031 176.894531 153.265625 176.792969 152.945312 176.683594 C 152.808594 176.636719 152.683594 176.59375 152.546875 176.546875 C 152.089844 176.402344 151.628906 176.273438 151.164062 176.15625 C 151.082031 176.136719 150.992188 176.121094 150.910156 176.09375 C 150.527344 176 150.144531 175.910156 149.753906 175.828125 C 149.582031 175.792969 149.417969 175.765625 149.246094 175.738281 C 148.933594 175.683594 148.625 175.621094 148.316406 175.574219 C 148.125 175.546875 147.925781 175.519531 147.734375 175.492188 C 147.445312 175.457031 147.152344 175.410156 146.863281 175.382812 C 146.652344 175.363281 146.445312 175.347656 146.242188 175.328125 C 145.960938 175.300781 145.671875 175.28125 145.378906 175.265625 C 145.160156 175.253906 144.953125 175.246094 144.734375 175.238281 C 144.453125 175.230469 144.160156 175.21875 143.878906 175.21875 C 143.769531 175.21875 143.660156 175.21875 143.542969 175.21875 C 143.425781 175.21875 143.324219 175.21875 143.214844 175.21875 C 142.925781 175.21875 142.640625 175.230469 142.351562 175.238281 C 142.140625 175.238281 141.925781 175.253906 141.714844 175.265625 C 141.605469 175.265625 141.496094 175.265625 141.378906 175.28125 C 141.140625 175.300781 140.90625 175.328125 140.667969 175.347656 C 140.558594 175.355469 140.441406 175.363281 140.332031 175.375 C 139.367188 175.472656 138.421875 175.621094 137.484375 175.8125 C 137.351562 175.839844 137.214844 175.875 137.078125 175.902344 C 136.777344 175.964844 136.476562 176.039062 136.175781 176.109375 C 135.957031 176.164062 135.738281 176.21875 135.523438 176.285156 C 135.332031 176.339844 135.128906 176.394531 134.941406 176.445312 C 134.65625 176.527344 134.386719 176.609375 134.113281 176.703125 C 134.03125 176.730469 133.949219 176.757812 133.867188 176.785156 C 124.945312 179.765625 117.871094 186.769531 114.777344 195.644531 C 114.761719 195.707031 114.734375 195.773438 114.714844 195.835938 C 114.605469 196.164062 114.488281 196.5 114.386719 196.835938 C 114.332031 197.007812 114.289062 197.191406 114.234375 197.371094 C 114.140625 197.699219 114.050781 198.019531 113.96875 198.355469 C 113.386719 200.699219 113.078125 203.15625 113.078125 205.675781 C 113.078125 222.5 126.71875 236.140625 143.542969 236.140625 C 160.367188 236.140625 174.007812 222.5 174.007812 205.675781 C 174.007812 203.191406 173.707031 200.773438 173.144531 198.464844 C 173.105469 198.308594 173.070312 198.152344 173.035156 198 Z M 173.015625 198 "/></g></svg>